<svg width="65" height="37" viewBox="0 0 65 37" fill="none" xmlns="http://www.w3.org/2000/svg">
    <path d="M16.45 36.25C13.7833 36.25 11.4 35.5333 9.3 34.1C7.23333 32.6333 5.61667 30.5667 4.45 27.9C3.31667 25.2333 2.75 22.1 2.75 18.5C2.75 14.9 3.31667 11.7667 4.45 9.1C5.61667 6.43333 7.23333 4.38333 9.3 2.95C11.4 1.48333 13.7833 0.749998 16.45 0.749998C19.1167 0.749998 21.4833 1.48333 23.55 2.95C25.65 4.38333 27.2667 6.43333 28.4 9.1C29.5667 11.7667 30.15 14.9 30.15 18.5C30.15 22.1 29.5667 25.2333 28.4 27.9C27.2667 30.5667 25.65 32.6333 23.55 34.1C21.4833 35.5333 19.1167 36.25 16.45 36.25ZM16.45 33.9C18.65 33.9 20.5833 33.3 22.25 32.1C23.95 30.8667 25.2667 29.1 26.2 26.8C27.1333 24.4667 27.6 21.7 27.6 18.5C27.6 15.3 27.1333 12.55 26.2 10.25C25.2667 7.91666 23.95 6.15 22.25 4.95C20.5833 3.71666 18.65 3.1 16.45 3.1C14.25 3.1 12.3 3.71666 10.6 4.95C8.93333 6.15 7.63333 7.91666 6.7 10.25C5.76667 12.55 5.3 15.3 5.3 18.5C5.3 21.7 5.76667 24.4667 6.7 26.8C7.63333 29.1 8.93333 30.8667 10.6 32.1C12.3 33.3 14.25 33.9 16.45 33.9ZM64.8602 26.3H57.5102V36H55.0102V26.3H35.0602V24.45L54.0602 0.999998H56.9102L38.2602 24.05H55.0602V15.5H57.5102V24.05H64.8602V26.3Z" fill="#FED100"/>
    <path d="M14.45 36.25C11.7833 36.25 9.4 35.5333 7.3 34.1C5.23333 32.6333 3.61667 30.5667 2.45 27.9C1.31667 25.2333 0.75 22.1 0.75 18.5C0.75 14.9 1.31667 11.7667 2.45 9.1C3.61667 6.43333 5.23333 4.38333 7.3 2.95C9.4 1.48333 11.7833 0.749998 14.45 0.749998C17.1167 0.749998 19.4833 1.48333 21.55 2.95C23.65 4.38333 25.2667 6.43333 26.4 9.1C27.5667 11.7667 28.15 14.9 28.15 18.5C28.15 22.1 27.5667 25.2333 26.4 27.9C25.2667 30.5667 23.65 32.6333 21.55 34.1C19.4833 35.5333 17.1167 36.25 14.45 36.25ZM14.45 33.9C16.65 33.9 18.5833 33.3 20.25 32.1C21.95 30.8667 23.2667 29.1 24.2 26.8C25.1333 24.4667 25.6 21.7 25.6 18.5C25.6 15.3 25.1333 12.55 24.2 10.25C23.2667 7.91666 21.95 6.15 20.25 4.95C18.5833 3.71666 16.65 3.1 14.45 3.1C12.25 3.1 10.3 3.71666 8.6 4.95C6.93333 6.15 5.63333 7.91666 4.7 10.25C3.76667 12.55 3.3 15.3 3.3 18.5C3.3 21.7 3.76667 24.4667 4.7 26.8C5.63333 29.1 6.93333 30.8667 8.6 32.1C10.3 33.3 12.25 33.9 14.45 33.9ZM62.8602 26.3H55.5102V36H53.0102V26.3H33.0602V24.45L52.0602 0.999998H54.9102L36.2602 24.05H53.0602V15.5H55.5102V24.05H62.8602V26.3Z" fill="#333333"/>
</svg>
